PathFileType	4	(x/y/z)	S08_PSF_T04
DataRate	CameraRate	NumFrames	NumMarkers	Units	OrigDataRate	OrigDataStartFrame	OrigNumFrames
240	240	4	51	mm	240	316	420
Frame#	Time	Sternum			R.Acromium			L.Acromium			Top.Head			R.ASIS			L.ASIS			R.PSIS			L.PSIS			R.Great.Tro			L.Great.Tro			R.Iliac.Crest			L.Iliac.Crest			V.Sacral			R.Thigh.Upper.Post			R.Thigh.Lower.Ant			R.Thigh.Lower.Post			R.Thigh.Upper.Ant			R.Knee.Lat			R.Knee.Med			R.Shank.Upper.Post			R.Shank.Lower.Ant			R.Shank.Lower.Post			R.Shank.Upper.Ant			R.Ankle.Lat			R.Ankle.Med			R.Heel.Upper			R.Heel.Med			R.Heel.Lat			R.Toe.Lat			R.Toe.Med			R.Toe.Tip			L.Thigh.Upper.Post			L.Thigh.Lower.Ant			L.Thigh.Lower.Post			L.Thigh.Upper.Ant			L.Knee.Lat			L.Knee.Med			L.Shank.Upper.Post			L.Shank.Lower.Ant			L.Shank.Lower.Post			L.Shank.Upper.Ant			L.Ankle.Lat			L.Ankle.Med			L.Heel.Upper			L.Heel.Med			L.Heel.Lat			L.Toe.Lat			L.Toe.Med			L.Toe.Tip			Cervical.Spine			Back			
		X1	Y1	Z1	X2	Y2	Z2	X3	Y3	Z3	X4	Y4	Z4	X5	Y5	Z5	X6	Y6	Z6	X7	Y7	Z7	X8	Y8	Z8	X9	Y9	Z9	X10	Y10	Z10	X11	Y11	Z11	X12	Y12	Z12	X13	Y13	Z13	X14	Y14	Z14	X15	Y15	Z15	X16	Y16	Z16	X17	Y17	Z17	X18	Y18	Z18	X19	Y19	Z19	X20	Y20	Z20	X21	Y21	Z21	X22	Y22	Z22	X23	Y23	Z23	X24	Y24	Z24	X25	Y25	Z25	X26	Y26	Z26	X27	Y27	Z27	X28	Y28	Z28	X29	Y29	Z29	X30	Y30	Z30	X31	Y31	Z31	X32	Y32	Z32	X33	Y33	Z33	X34	Y34	Z34	X35	Y35	Z35	X36	Y36	Z36	X37	Y37	Z37	X38	Y38	Z38	X39	Y39	Z39	X40	Y40	Z40	X41	Y41	Z41	X42	Y42	Z42	X43	Y43	Z43	X44	Y44	Z44	X45	Y45	Z45	X46	Y46	Z46	X47	Y47	Z47	X48	Y48	Z48	X49	Y49	Z49	X50	Y50	Z50	X51	Y51	Z51	

316	1.3125	230.15	1232.3	333.69	119.16	1470.5	508.88	97.441	1495.6	173.38	118.63	1789.9	345.88	210.08	1016.8	441.07	211.06	1027.6	209.19	9.1207	1042.1	366.76	12.295	1050.6	273.29	142.65	903.44	507.96	122.17	919.74	142.35	113.14	1082.9	488.24	114.69	1107.8	180.52	-5.9758	1005.9	316.66	157.61	703.91	497.96	251.22	617.38	478.85	179.41	616.54	482.95	236.46	710.59	494.67	226.8	517.69	475.02	215.95	516.93	343.01	66.22	426.31	481.94	62.515	337.85	462.18	9.887	373.51	475.59	119.78	391.19	471.02	-112.7	263.18	446.34	-80.423	247.58	367.82	-159.7	285.2	396.34	-175.21	264.59	366.31	-180.92	267.77	428.45	NaN	NaN	NaN	-82.339	106.92	353.43	-36.554	57.668	397.87	135.7	709.22	161.6	230.63	630.57	189.7	162.41	624.15	182.37	208.47	713.07	162.88	193.21	523.43	206.53	184.2	526.42	330.55	136.82	342.23	203.71	201.07	255.76	235.14	131.79	270.01	221	199.83	330.52	217.32	148.24	100.43	243.43	166.72	104.65	330.48	92.631	75.851	289.64	104.85	40.936	320.37	101.41	49.212	256.11	279.51	40.164	228.2	294.1	39.156	344.59	360.09	56.453	298.72	42.686	1527.3	337.99	-3.7773	1244.2	348.18
317	1.3167	235.12	1232.9	333.55	124.2	1471.1	508.75	102.6	1496.3	173.26	124.05	1790.5	345.89	215.19	1017.6	440.73	215.94	1028.2	208.88	14.134	1042.7	366.67	17.253	1051.2	273.19	148.34	904.41	507.86	126.8	920.13	142.29	118.23	1083.6	488.04	119.61	1108.3	180.31	-0.96247	1006.4	316.63	165.6	705.01	498.15	260.09	619.47	478.77	188.24	617.85	483.07	244.43	712.47	494.6	236.6	519.48	475.01	225.51	518.61	343.01	76.744	426.68	482.1	73.876	338.17	462.39	20.94	373.33	475.86	130.62	392.06	471.11	-100.78	261.83	446.46	-68.268	246.55	368.19	-148.65	282.47	396.47	-163.62	261.26	366.58	-169.4	264.73	428.67	NaN	NaN	NaN	-67.025	105.84	354.79	-20.076	58.076	399.61	139.01	709.7	161.56	233.37	630.39	189.76	165.16	624.43	182.27	211.8	713.07	162.93	195.12	523.42	206.57	186.29	526.44	330.54	137.84	342.44	203.78	201.79	255.72	235.22	132.56	270.23	221.09	200.81	330.49	217.38	148.42	100.55	243.56	166.8	104.69	330.59	92.718	75.957	289.7	104.85	41.001	320.37	101.47	49.325	256.14	279.55	40.137	228.2	294.15	39.008	344.62	360.18	56.182	298.71	47.809	1528	337.83	1.2099	1244.9	347.91
318	1.3208	240.07	1233.5	333.41	129.24	1471.8	508.61	107.76	1496.9	173.16	129.46	1791.1	345.91	220.28	1018.4	440.39	220.82	1028.6	208.56	19.131	1043.3	366.59	22.196	1051.7	273.11	154.02	905.37	507.76	131.45	920.49	142.24	123.31	1084.4	487.86	124.52	1108.8	180.11	4.0427	1007	316.6	173.53	706.12	498.38	268.88	621.58	478.67	197.02	619.18	483.22	252.33	714.36	494.51	246.3	521.27	474.98	234.97	520.3	343.01	87.227	426.94	482.23	85.272	338.39	462.57	32.001	373.01	476.12	141.45	392.87	471.19	-88.741	260.24	446.56	-55.983	245.29	368.54	-137.45	279.44	396.58	-151.87	257.63	366.85	-157.72	261.41	428.88	NaN	NaN	NaN	-51.502	104.61	356.15	-3.3834	58.395	401.34	142.32	710.18	161.52	236.11	630.21	189.84	167.91	624.7	182.17	215.13	713.06	163	197.02	523.4	206.6	188.38	526.47	330.54	138.86	342.64	203.85	202.51	255.69	235.31	133.31	270.45	221.19	201.79	330.47	217.45	148.61	100.67	243.7	166.87	104.73	330.68	92.804	76.064	289.76	104.84	41.068	320.37	101.53	49.437	256.18	279.58	40.113	228.19	294.2	38.864	344.64	360.27	55.923	298.7	52.928	1528.6	337.66	6.1839	1245.5	347.64
319	1.325	245.01	1234.1	333.25	134.29	1472.4	508.48	112.92	1497.5	173.06	134.86	1791.7	345.93	225.35	1019.2	440.04	225.67	1029.1	208.25	24.111	1043.8	366.52	27.123	1052.1	273.03	159.69	906.32	507.68	136.11	920.81	142.21	128.37	1085.1	487.67	129.4	1109.2	179.91	9.0396	1007.5	316.58	181.42	707.23	498.65	277.6	623.69	478.55	205.75	620.53	483.41	260.16	716.25	494.4	255.91	523.07	474.93	244.33	522	343.01	97.668	427.09	482.35	96.701	338.52	462.75	43.07	372.55	476.35	152.25	393.63	471.26	-76.577	258.41	446.66	-43.568	243.81	368.87	-126.09	276.12	396.68	-139.94	253.73	367.12	-145.87	257.81	429.1	NaN	NaN	NaN	-35.779	103.24	357.51	13.508	58.634	403.06	145.64	710.64	161.48	238.85	630.02	189.93	170.67	624.97	182.07	218.46	713.05	163.08	198.91	523.38	206.65	190.45	526.49	330.55	139.87	342.85	203.92	203.22	255.65	235.4	134.06	270.67	221.28	202.75	330.44	217.52	148.79	100.79	243.83	166.93	104.76	330.77	92.889	76.172	289.81	104.83	41.137	320.37	101.59	49.549	256.22	279.62	40.092	228.2	294.25	38.726	344.66	360.36	55.674	298.69	58.041	1529.1	337.5	11.146	1246.1	347.38
